<svg width="21" height="18" viewBox="0 0 21 18" fill="none" xmlns="http://www.w3.org/2000/svg">
<path d="M20.667 2.79721C19.9312 3.12388 19.1403 3.34388 18.3103 3.44305C19.1578 2.93555 19.8087 2.13138 20.1145 1.17305C19.322 1.64305 18.4437 1.98471 17.5087 2.16888C16.7612 1.37138 15.6937 0.873047 14.5137 0.873047C11.8645 0.873047 9.91783 3.34471 10.5162 5.91055C7.10699 5.73971 4.08366 4.10638 2.05949 1.62388C0.984492 3.46805 1.50199 5.88055 3.32866 7.10221C2.65699 7.08055 2.02366 6.89638 1.47116 6.58888C1.42616 8.48971 2.78866 10.268 4.76199 10.6639C4.18449 10.8205 3.55199 10.8572 2.90866 10.7339C3.43033 12.3639 4.94533 13.5497 6.74199 13.583C5.01699 14.9355 2.84366 15.5397 0.666992 15.283C2.48283 16.4472 4.64033 17.1264 6.95699 17.1264C14.5753 17.1264 18.8795 10.6922 18.6195 4.92138C19.4212 4.34221 20.117 3.61971 20.667 2.79721Z" fill="white"/>
</svg>
